<svg xmlns="http://www.w3.org/2000/svg" version="1.1" xmlns:xlink="http://www.w3.org/1999/xlink" xmlns:svgjs="http://svgjs.dev/svgjs" viewBox="0 0 2400 800"><defs><linearGradient x1="50%" y1="0%" x2="50%" y2="100%" id="sssurf-grad"><stop stop-color="hsla(230, 96%, 38%, 1.00)" stop-opacity="1" offset="0%"></stop><stop stop-color="hsla(178, 98%, 51%, 1.00)" stop-opacity="1" offset="100%"></stop></linearGradient></defs><g fill="url(#sssurf-grad)" transform="matrix(1,0,0,1,0,-96.91036987304688)"><path d="M 0 322.07216843304616 Q 450 567.2265118549072 600 316.93785481538674 Q 1050 606.7780466674819 1200 313.82071627562266 Q 1650 476.6930778605861 1800 325.0005819596905 Q 2250 620.365719554075 2400 326.30863357429143 L 2400 800 L 0 800 L 0 316.41904104111967 Z" transform="matrix(1,0,0,1,0,35)" opacity="0.05"></path><path d="M 0 322.07216843304616 Q 450 567.2265118549072 600 316.93785481538674 Q 1050 606.7780466674819 1200 313.82071627562266 Q 1650 476.6930778605861 1800 325.0005819596905 Q 2250 620.365719554075 2400 326.30863357429143 L 2400 800 L 0 800 L 0 316.41904104111967 Z" transform="matrix(1,0,0,1,0,70)" opacity="0.21"></path><path d="M 0 322.07216843304616 Q 450 567.2265118549072 600 316.93785481538674 Q 1050 606.7780466674819 1200 313.82071627562266 Q 1650 476.6930778605861 1800 325.0005819596905 Q 2250 620.365719554075 2400 326.30863357429143 L 2400 800 L 0 800 L 0 316.41904104111967 Z" transform="matrix(1,0,0,1,0,105)" opacity="0.37"></path><path d="M 0 322.07216843304616 Q 450 567.2265118549072 600 316.93785481538674 Q 1050 606.7780466674819 1200 313.82071627562266 Q 1650 476.6930778605861 1800 325.0005819596905 Q 2250 620.365719554075 2400 326.30863357429143 L 2400 800 L 0 800 L 0 316.41904104111967 Z" transform="matrix(1,0,0,1,0,140)" opacity="0.53"></path><path d="M 0 322.07216843304616 Q 450 567.2265118549072 600 316.93785481538674 Q 1050 606.7780466674819 1200 313.82071627562266 Q 1650 476.6930778605861 1800 325.0005819596905 Q 2250 620.365719554075 2400 326.30863357429143 L 2400 800 L 0 800 L 0 316.41904104111967 Z" transform="matrix(1,0,0,1,0,175)" opacity="0.68"></path><path d="M 0 322.07216843304616 Q 450 567.2265118549072 600 316.93785481538674 Q 1050 606.7780466674819 1200 313.82071627562266 Q 1650 476.6930778605861 1800 325.0005819596905 Q 2250 620.365719554075 2400 326.30863357429143 L 2400 800 L 0 800 L 0 316.41904104111967 Z" transform="matrix(1,0,0,1,0,210)" opacity="0.84"></path><path d="M 0 322.07216843304616 Q 450 567.2265118549072 600 316.93785481538674 Q 1050 606.7780466674819 1200 313.82071627562266 Q 1650 476.6930778605861 1800 325.0005819596905 Q 2250 620.365719554075 2400 326.30863357429143 L 2400 800 L 0 800 L 0 316.41904104111967 Z" transform="matrix(1,0,0,1,0,245)" opacity="1"></path></g></svg>